<svg width="72" height="72" viewBox="0 0 72 72" fill="none" xmlns="http://www.w3.org/2000/svg">
<path fill-rule="evenodd" clip-rule="evenodd" d="M36 72C45.5478 72 54.7045 68.2072 61.4558 61.4558C68.2072 54.7045 72 45.5478 72 36C72 26.4522 68.2072 17.2955 61.4558 10.5442C54.7045 3.79285 45.5478 0 36 0C26.4522 0 17.2955 3.79285 10.5442 10.5442C3.79285 17.2955 0 26.4522 0 36C0 45.5478 3.79285 54.7045 10.5442 61.4558C17.2955 68.2072 26.4522 72 36 72ZM40.5 13.5C40.5 12.3065 40.0259 11.1619 39.182 10.318C38.3381 9.47411 37.1935 9 36 9C34.8065 9 33.6619 9.47411 32.818 10.318C31.9741 11.1619 31.5 12.3065 31.5 13.5V13.914C28.812 14.3925 26.2474 15.4055 23.958 16.893C20.709 19.053 18 22.5405 18 27C18 31.455 20.709 34.9425 23.958 37.107C26.118 38.547 28.701 39.5595 31.5 40.086V48.8205C29.7405 48.249 28.44 47.394 27.7065 46.5525C27.3258 46.0853 26.8552 45.6994 26.3225 45.4176C25.7898 45.1358 25.206 44.9638 24.6056 44.9119C24.0052 44.8601 23.4005 44.9293 22.8274 45.1155C22.2543 45.3018 21.7244 45.6012 21.2692 45.9961C20.814 46.391 20.4428 46.8733 20.1775 47.4144C19.9122 47.9555 19.7584 48.5444 19.725 49.1461C19.6916 49.7478 19.7795 50.3501 19.9833 50.9172C20.1871 51.4843 20.5028 52.0047 20.9115 52.4475C23.4405 55.368 27.27 57.2895 31.5 58.086V58.5C31.5 59.6935 31.9741 60.8381 32.818 61.682C33.6619 62.5259 34.8065 63 36 63C37.1935 63 38.3381 62.5259 39.182 61.682C40.0259 60.8381 40.5 59.6935 40.5 58.5V58.086C43.188 57.6075 45.7526 56.5945 48.042 55.107C51.291 52.947 54 49.4595 54 45C54 40.545 51.291 37.0575 48.042 34.893C45.7526 33.4055 43.188 32.3925 40.5 31.914V23.1795C42.2595 23.751 43.56 24.606 44.2935 25.4475C44.6777 25.9034 45.1488 26.2784 45.6792 26.5507C46.2096 26.823 46.7888 26.9872 47.3833 27.0337C47.9777 27.0803 48.5754 27.0082 49.1417 26.8217C49.7081 26.6353 50.2317 26.3381 50.6822 25.9475C51.1327 25.557 51.5011 25.0808 51.7659 24.5466C52.0308 24.0124 52.1869 23.4309 52.2251 22.8359C52.2634 22.2409 52.183 21.6443 51.9886 21.0806C51.7942 20.5169 51.4898 19.9975 51.093 19.5525C48.5595 16.632 44.7345 14.7105 40.5 13.914V13.5Z" fill="white"/>
</svg>
